<svg width="231" height="71" viewBox="0 0 231 71" fill="none" xmlns="http://www.w3.org/2000/svg">
<path fill-rule="evenodd" clip-rule="evenodd" d="M0.399414 44.056H3.40944V69.912H0.399414V44.056ZM0.399414 34.0532H3.40944V38.5433H0.399414V34.0532ZM11.9088 44.056H14.8192V48.1991C16.7662 45.0101 19.6113 43.4148 23.4057 43.4148C27.0009 43.4148 29.7977 44.7611 31.2031 47.0567C32.207 48.6489 32.2568 50.6893 32.2568 53.4285V69.912H29.2468V53.7771C29.2468 48.5493 28.0982 46.0591 22.8081 46.0591C18.0658 46.0591 14.9204 49.2963 14.9204 54.6736V69.912H11.9103V44.056H11.9088ZM44.4198 44.0591H49.2103V46.5182H44.4198V65.3067C44.4198 67.1946 44.6688 68.0911 46.3155 68.0911C47.1139 68.0911 48.0633 67.842 49.2103 67.593V69.9976C47.8625 70.3509 46.6657 70.5501 45.5171 70.5501C42.1631 70.5501 41.4098 68.8412 41.4098 65.3067V46.5182H37.866V44.0591H41.4098V36.6243H44.4198V44.0591ZM57.3377 55.0658C57.6381 49.424 60.9376 46.0591 65.588 46.0591C70.2385 46.0591 73.3403 49.3757 73.5909 55.0658H57.3377ZM57.3377 57.5264H76.6928V56.521C76.6928 48.1399 72.5404 43.4164 65.6394 43.4164C58.5875 43.4164 54.2359 48.3859 54.2359 57.0735C54.2359 65.6943 58.5377 70.6435 65.5382 70.6435C71.4898 70.6435 75.6905 67.1962 76.341 61.9341H73.3403C72.7396 65.7425 69.7887 67.9977 65.7375 67.9977C60.7368 67.9977 57.3362 64.1892 57.3362 57.6743L57.3377 57.5264ZM83.5641 44.056H86.4745V48.6069C88.0231 45.0163 90.7172 43.4148 94.4587 43.4148H94.8089V46.5182H94.4089C89.2698 46.5182 86.5742 49.6029 86.5742 55.5763V69.912H83.5641V44.056ZM102.297 57.0082C102.297 49.9407 105.593 46.0591 111.087 46.0591C116.629 46.0591 119.927 49.9407 119.927 57.0082C119.927 64.0756 116.629 67.9059 111.087 67.9059C105.593 67.9059 102.297 64.0756 102.297 57.0082ZM99.1948 57.0082C99.1948 65.6647 103.545 70.5501 111.087 70.5501C118.629 70.5501 123.027 65.6647 123.027 57.0082C123.027 48.3485 118.629 43.4148 111.087 43.4148C103.546 43.4148 99.1948 48.3485 99.1948 57.0082ZM150.175 69.912H147.266V65.8016C145.276 69.0934 142.491 70.6404 138.61 70.6404C132.741 70.6404 129.83 67.5463 129.83 61.464V44.056H132.84V60.7652C132.84 65.702 134.429 67.9961 139.158 67.9961C144.085 67.9961 147.167 64.7044 147.167 59.3661V44.0545H150.177V69.912H150.175ZM162.531 44.0591H167.322V46.5182H162.531V65.3067C162.531 67.1946 162.78 68.0911 164.429 68.0911C165.225 68.0911 166.176 67.842 167.322 67.593V69.9976C165.972 70.3509 164.777 70.5501 163.629 70.5501C160.276 70.5501 159.521 68.8412 159.521 65.3067V46.5182H155.977V44.0591H159.521V36.6243H162.531V44.0591ZM175.448 55.0658C175.748 49.424 179.049 46.0591 183.701 46.0591C188.353 46.0591 191.452 49.3757 191.706 55.0658H175.448ZM175.448 57.5264H194.803V56.521C194.803 48.1399 190.653 43.4164 183.749 43.4164C176.701 43.4164 172.347 48.3859 172.347 57.0735C172.347 65.6943 176.649 70.6435 183.65 70.6435C189.601 70.6435 193.805 67.1962 194.456 61.9341H191.452C190.85 65.7425 187.899 67.9977 183.849 67.9977C178.848 67.9977 175.448 64.1892 175.448 57.6743V57.5264Z" fill="#1A4D85"/>
<path fill-rule="evenodd" clip-rule="evenodd" d="M209.558 29.1227L219.258 25.9788L209.558 22.835L206.415 13.1372L203.268 22.835L193.575 25.9788L203.268 29.1227L206.415 38.8205L209.558 29.1227Z" fill="#E8AE30" stroke="#E8AE30" stroke-width="3.24244" stroke-miterlimit="2.613"/>
<path fill-rule="evenodd" clip-rule="evenodd" d="M230.727 7.66345C229.528 -3.10041 193.389 1.79281 193.389 1.79281C165.688 5.52188 148.504 14.7574 149.97 22.0941C151.437 29.4324 163.67 28.4535 163.67 28.4535C163.67 28.4535 164.13 28.2698 161.744 27.3516C159.361 26.4349 156.057 24.4162 156.332 20.8397C156.575 17.6491 162.376 9.43772 185.016 5.17948C185.016 5.17948 221.368 -1.17518 224.296 8.46654C225.339 11.8983 223.177 14.7294 221.202 16.348C219.227 17.9666 219.719 17.9978 219.719 17.9978C219.719 17.9978 231.553 15.1014 230.727 7.66345Z" fill="#1A4D85"/>
</svg>
