<svg width="264" height="86" viewBox="0 0 264 86" fill="none" xmlns="http://www.w3.org/2000/svg">
<path fill-rule="evenodd" clip-rule="evenodd" d="M59.8154 0.224609H84.8014C86.2831 0.224609 87.1562 0.76623 86.1804 2.12027L68.7739 26.244C66.0907 29.9653 65.0697 33.8205 65.3281 37.7908C65.5865 41.7486 66.8782 45.68 69.8089 49.3359L92.0386 77.0798C92.851 78.0915 92.244 79.1467 90.8324 79.1467H62.055C60.6761 79.1467 59.859 78.5957 58.9532 77.4238L46.5458 61.3978C41.2635 54.5731 36.5508 46.6916 36.5508 37.7908C36.5508 29.1778 41.886 21.6045 46.8913 15.0444L56.8848 1.94596C57.7844 0.769344 58.6077 0.224609 59.8154 0.224609Z" fill="#295DA8"/>
<path fill-rule="evenodd" clip-rule="evenodd" d="M26.7282 0.224609H3.29237C1.95078 0.224609 0.363281 1.64247 0.363281 2.98095V19.3509C0.363281 21.5687 1.46986 21.936 3.29237 21.936H26.7282C28.6737 21.936 29.3134 21.2963 29.3134 19.3509V2.98095C29.3134 1.17245 28.7951 0.224609 26.7282 0.224609ZM26.7282 28.658H3.29237C1.95078 28.658 0.363281 30.0758 0.363281 31.4143V47.7873C0.363281 50.0036 1.46986 50.3709 3.29237 50.3709H26.7282C28.6737 50.3709 29.3134 49.7297 29.3134 47.7873V31.4143C29.3134 29.6058 28.7951 28.658 26.7282 28.658ZM26.7282 57.0913H3.29237C1.95078 57.0913 0.363281 58.5076 0.363281 59.8477V76.2176C0.363281 78.4338 1.46986 78.8043 3.29237 78.8043H26.7282C28.6737 78.8043 29.3134 78.1662 29.3134 76.2176V59.8477C29.3134 58.0392 28.7951 57.0913 26.7282 57.0913ZM96.4755 56.8968V79.0891H102.855V68.7937L110.371 79.0891H118.302L108.612 67.0972L117.404 56.8968H110.268L102.855 66.4902V56.8968H96.4755Z" fill="#434244"/>
<path fill-rule="evenodd" clip-rule="evenodd" d="M118.121 55.1055V59.6796H124.188V55.1055H118.121ZM118.121 62.6539V79.0907H124.188V62.6539H118.121ZM139.56 62.3986C138.871 62.3021 138.217 62.2072 137.733 62.2072C135.286 62.2072 133.559 63.3558 132.318 65.7884V62.6539H126.905V79.0907H132.975V72.087C132.975 68.6973 134.493 66.9712 137.352 66.9712C138.041 66.9712 138.662 67.0351 139.249 67.2607L139.56 62.3986ZM154.14 63.0694C152.347 62.492 150.69 62.2056 149.177 62.2056C142.796 62.2056 139.003 65.5612 139.003 70.9026C139.003 76.0496 142.933 79.5421 148.694 79.5421C150.866 79.5421 152.761 79.2868 154.311 78.7701L154.174 74.4512C153.052 75.0911 151.78 75.4225 150.487 75.4115C147.278 75.4115 145.28 73.5905 145.28 70.87C145.28 68.0887 147.177 66.2973 150.21 66.2973C151.347 66.2973 152.52 66.5868 153.728 67.1938L154.14 63.0694ZM156.027 55.1055V79.0892H162.096V71.1921C162.096 68.4078 163.576 66.8094 165.576 66.8094C167.611 66.8094 168.577 68.0591 168.577 70.649V79.0907H174.611V69.4661C174.611 64.7005 172.267 62.2072 167.958 62.2072C165.404 62.2072 163.337 63.1644 162.096 64.9246V55.1055H156.027ZM192.878 57.1552C190.811 56.6105 188.637 56.3552 186.328 56.3552C179.847 56.3552 176.364 58.8812 176.364 63.292C176.364 66.5868 178.398 68.344 182.707 69.7852C185.638 70.7766 187.501 71.0614 187.501 72.7252C187.501 74.1959 185.984 75.1562 183.431 75.1562C181.641 75.1562 179.501 74.7095 177.157 73.715L176.606 78.6736C179.087 79.318 181.501 79.6074 183.811 79.6074C190.534 79.6074 194.052 76.9149 194.052 72.087C194.052 70.0077 193.292 68.5058 191.605 67.2903C190.052 66.2024 187.811 65.6281 185.087 64.797C183.604 64.3472 182.88 63.6453 182.88 62.7177C182.88 61.4072 184.328 60.5746 186.984 60.5746C188.671 60.5746 190.464 60.9574 192.396 61.7263L192.878 57.1552ZM205.597 66.4265C207.768 66.4265 209.251 68.0887 209.251 70.7128C209.251 73.5921 207.734 75.2511 205.494 75.2511C203.287 75.2511 201.804 73.6216 201.804 70.8715C201.804 68.0592 203.287 66.4265 205.597 66.4265ZM201.804 76.7857C203.217 78.6098 205.147 79.5421 207.631 79.5421C212.148 79.5421 215.525 76.0822 215.525 70.775C215.525 65.4974 212.25 62.2056 207.561 62.2056C204.805 62.2056 202.564 63.4819 201.183 65.7868V62.6523H195.736V85.7753H201.803V76.7857H201.804ZM226.483 62.2072C220.07 62.2072 216.313 65.4694 216.313 70.87C216.313 76.2752 220.104 79.5094 226.483 79.5094C232.897 79.5094 236.689 76.2752 236.689 70.87C236.689 65.4678 232.897 62.2072 226.483 62.2072ZM226.483 66.137C228.757 66.137 230.343 67.9269 230.343 70.8388C230.343 73.7477 228.756 75.5048 226.483 75.5048C224.277 75.5048 222.624 73.715 222.624 70.8388C222.622 67.9611 224.242 66.137 226.483 66.137ZM251.024 62.3986C250.338 62.3021 249.681 62.2072 249.197 62.2072C246.751 62.2072 245.026 63.3558 243.783 65.7884V62.6539H238.371V79.0907H244.438V72.087C244.438 68.6973 245.955 66.9712 248.814 66.9712C249.504 66.9712 250.125 67.0351 250.712 67.2607L251.024 62.3986Z" fill="#434244"/>
<path fill-rule="evenodd" clip-rule="evenodd" d="M259.189 57.0571L253.468 58.8469V62.6523H249.708V66.7128H253.121V72.5306C253.121 77.3911 255.051 79.5405 259.949 79.5405C261.085 79.5405 262.293 79.4128 263.639 79.1234L263.536 75.4394C262.847 75.6013 262.363 75.6978 262.019 75.6978C259.915 75.6978 259.189 74.7702 259.189 72.3718V66.7113H263.536V62.6507H259.189V57.0571Z" fill="#434244"/>
</svg>
