<svg width="140" height="198" viewBox="0 0 140 198" fill="none" xmlns="http://www.w3.org/2000/svg">
<path fill-rule="evenodd" clip-rule="evenodd" d="M0.725586 -0.000488281H139.274V198.001H0.725586V-0.000488281Z" fill="white"/>
<path fill-rule="evenodd" clip-rule="evenodd" d="M0.725586 -0.000488281H139.274V198.001H0.725586V-0.000488281Z" fill="black"/>
<path fill-rule="evenodd" clip-rule="evenodd" d="M16.249 99.6872H122.905V98.8427H16.249V99.6872ZM16.249 133.056H122.905V132.213H16.249V133.056ZM16.249 156.077H122.905V155.234H16.249V156.077ZM16.249 184.167H122.905V181.315H16.249V184.167ZM32.8278 42.769C32.2997 43.5077 31.1387 43.8252 29.6602 43.8252H29.1321V24.3942H29.8719C31.2445 24.3942 32.3008 24.7107 32.8278 25.4505C33.3559 26.0844 33.6724 27.4571 33.6724 29.4637V38.8617C33.6734 40.8683 33.3559 42.1351 32.8278 42.769ZM29.1321 51.5331H31.3504L34.4132 87.0147H44.9732L41.0669 49.7381C42.229 49.21 42.9677 48.1538 43.4958 46.5695C43.9181 44.9852 44.1297 42.4515 44.1297 38.9664V28.4064C44.1297 23.6545 43.1794 20.381 41.0669 18.5861C38.9545 16.6854 35.2588 15.735 29.8729 15.735H18.5731V87.0158H29.1332V51.5331H29.1321ZM75.069 87.0147H64.8254V52.2729C64.8254 44.1417 64.4032 38.3335 63.6634 34.8495C62.9247 31.2586 61.6568 28.1968 59.8619 25.3457C60.0725 28.0921 60.1783 30.5209 60.39 32.7381C60.39 34.9554 60.4958 37.1726 60.4958 39.0744V87.0169H50.0416V15.735H64.509C65.5652 17.6357 66.5156 19.854 67.466 22.2829C68.4164 24.6059 69.2609 27.3523 70.0007 30.3082C70.5905 27.5713 71.4032 24.8873 72.4306 22.2829C73.2741 19.854 74.3303 17.7416 75.4924 15.735H89.7492V87.0158H79.5045V39.0733C79.5045 37.0667 79.5045 34.8495 79.6125 32.6313C79.7183 30.3082 79.8231 27.9852 80.0337 25.3446C78.2377 28.1958 77.0756 31.2586 76.2322 34.8485C75.4924 38.3325 75.0701 44.1406 75.0701 52.2718V87.0147H75.069ZM121.744 32.7371V38.3335H110.867V28.7239C110.867 26.6115 110.657 25.133 110.34 24.5001C110.024 23.7603 109.39 23.4439 108.544 23.4439C107.806 23.4439 107.277 23.7603 106.855 24.3942C106.539 24.9224 106.434 26.4008 106.434 28.7239V32.4196C106.434 36.5376 108.123 40.4449 111.608 44.0358C112.029 44.4581 112.348 44.7746 112.454 44.9862C112.559 44.9862 112.559 45.0921 112.664 45.0921C118.684 51.5331 121.745 57.7635 121.745 63.5716V70.1195C121.745 76.7722 120.794 81.5241 118.789 84.0588C116.887 86.5935 113.508 87.9662 108.65 87.9662C103.9 87.9662 100.52 86.6994 98.618 84.0588C96.6125 81.5241 95.6621 76.878 95.6621 70.1195V59.8759H106.434V73.92C106.434 76.1383 106.54 77.6167 106.855 78.2496C107.276 78.8836 107.805 79.2 108.544 79.2C109.39 79.2 110.024 78.8836 110.34 78.2496C110.657 77.6157 110.867 76.1372 110.867 73.92V67.5848C110.867 64.0997 110.446 61.2486 109.705 59.242C108.862 57.1295 106.855 54.3842 103.685 51.1108C100.202 47.5209 97.9841 44.4581 97.0337 42.1351C96.0833 39.7062 95.661 36.6444 95.661 32.7371V28.8297C95.661 24.1826 96.7172 20.6986 98.9334 18.3755C101.152 15.9466 104.32 14.7856 108.649 14.7856C113.507 14.7856 116.886 16.1583 118.788 18.692C120.792 21.3314 121.744 25.9775 121.744 32.7371ZM30.1883 112.464C30.1883 114.366 29.2379 115.21 27.5478 115.21H25.2247V109.825H27.5478C29.1321 109.824 30.1883 110.565 30.1883 112.464ZM32.9336 125.559L29.9767 117.216C31.6658 116.479 32.8278 114.998 32.8278 112.359C32.8278 108.768 30.3989 107.29 27.7594 107.29H22.5853V125.559H25.2258V117.639H27.3372L30.0835 125.559H32.9336ZM38.9534 125.559V108.241H47.0846V110.67H41.3823V115.317H45.078V117.638H41.3823V123.235H47.4011V125.559H38.9534ZM59.8619 113.415C59.8619 115.317 58.8056 116.16 57.433 116.16H55.3206V110.67H57.3272C58.7009 110.67 59.8619 111.513 59.8619 113.415ZM62.3966 113.309C62.3966 109.718 59.9677 108.241 57.5388 108.241H52.8927V125.558H55.3216V118.588H57.3282C59.9677 118.589 62.3966 116.9 62.3966 113.309ZM74.8584 113.204C74.8584 114.998 73.9081 115.739 72.4296 115.739H70.1055V110.671H72.4296C73.8022 110.67 74.8584 111.408 74.8584 113.204ZM77.3921 125.559L74.6446 117.639C76.3359 117.006 77.3921 115.633 77.3921 113.099C77.3921 109.614 75.069 108.242 72.5343 108.242H67.6766V125.559H70.1055V118.062H72.111L74.7526 125.559H77.3921ZM83.4119 108.241H85.8408V125.559H83.4119V108.241ZM100.094 125.559L95.8716 116.371C95.5552 115.633 94.9212 113.942 94.7096 113.521V125.559H92.3865V108.242H94.8154L98.5111 116.479C98.8276 117.216 99.5673 118.908 99.7779 119.329C99.6721 118.694 99.6721 116.794 99.6721 115.95V108.242H102.101V125.559H100.094ZM113.19 110.67V125.559H110.761V110.67H107.594V108.241H116.359V110.67H113.19ZM27.9711 149.107V144.989C27.9711 144.356 28.0769 142.877 28.0769 142.454C27.9711 142.876 27.443 144.356 27.2324 145.094L25.9656 149.425L24.5929 145.094C24.3813 144.356 23.959 142.876 23.8531 142.454V149.107H22.4805V138.865H24.0648L25.3316 143.087C25.5422 143.722 25.8597 144.989 25.9656 145.41C26.0714 144.989 26.3879 143.721 26.5995 143.087L27.9722 138.865H29.4507V149.107H27.9711ZM37.0527 144.989H35.3625L35.7848 143.3C35.8906 142.665 36.1023 141.504 36.2071 141.082C36.3129 141.503 36.5235 142.665 36.6293 143.3L37.0527 144.989ZM39.4815 149.107L36.9468 138.865H35.5742L33.0395 149.107H34.518L35.1519 146.362H37.3702L37.8983 149.107H39.4815ZM47.6127 149.107L45.1838 143.617C44.9722 143.195 44.5499 142.244 44.4451 141.927V149.106H43.0725V138.864H44.551L46.7682 143.721C46.9798 144.142 47.2963 145.094 47.4021 145.41V138.864H48.7748V149.106H47.6127V149.107ZM58.9115 149.107L56.3768 138.865H54.8983L52.3636 149.107H53.9479L54.476 146.362H56.6932L57.3272 149.107H58.9115ZM56.3768 144.989H54.7935L55.2158 143.3C55.3216 142.665 55.5333 141.504 55.6381 141.082C55.6381 141.503 55.9545 142.665 56.0603 143.3L56.3768 144.989ZM64.9302 149.214C62.8188 149.214 61.8674 146.891 61.8674 144.038C61.8674 140.871 62.9236 138.759 65.0361 138.759C66.7252 138.759 67.4649 139.709 67.7814 141.188L66.3029 141.609C66.0912 140.553 65.6689 140.131 64.9302 140.131C63.874 140.131 63.3459 141.821 63.3459 144.038C63.3459 145.729 63.7682 147.839 65.0361 147.839C66.0923 147.839 66.4087 147.206 66.4087 145.94V145.2H65.2467V143.827H67.8861V146.15C67.8872 147.839 67.0426 149.214 64.9302 149.214ZM71.9004 149.107V138.865H76.7581V140.237H73.3778V142.983H75.5961V144.356H73.3778V147.734H76.9688V149.107H71.9004ZM86.1572 149.107V144.989V142.454C86.0514 142.876 85.628 144.356 85.4174 145.094L84.0448 149.425L82.7779 145.094C82.4615 144.356 82.0403 142.876 81.9323 142.454V149.107H80.6655V138.865H82.1451L83.4119 143.087C83.6225 143.722 83.9389 144.989 84.0448 145.41C84.1506 144.989 84.5739 143.721 84.6798 143.087L86.0524 138.865H87.5299V149.107H86.1572ZM91.7547 149.107V138.865H96.6114V140.237H93.2322V142.983H95.4504V144.356H93.2322V147.734H96.8231V149.107H91.7547ZM105.058 149.107L102.523 143.617C102.313 143.195 101.996 142.244 101.89 141.927V149.106H100.518V138.864H101.89L104.109 143.721C104.319 144.142 104.742 145.094 104.846 145.41V138.864H106.219V149.106H105.058V149.107ZM113.19 140.237V149.107H111.818V140.237H109.918V138.865H115.091V140.237H113.19ZM39.5874 172.551C38.3206 172.551 37.4749 171.916 36.8421 170.968L38.0041 170.018C38.5322 170.861 39.0603 171.18 39.6932 171.18C40.433 171.18 40.9611 170.651 40.9611 169.913C40.9611 169.067 40.5388 168.646 39.1662 167.695C38.0041 166.955 37.1596 166.217 37.1596 164.631C37.1596 163.153 38.1099 161.991 39.6943 161.991C40.9621 161.991 41.595 162.52 42.229 163.469L41.1728 164.314C40.6447 163.679 40.3282 163.469 39.6943 163.469C38.9555 163.469 38.6381 163.892 38.6381 164.525C38.6381 165.265 38.9545 165.792 40.1155 166.427C41.3834 167.27 42.3338 168.116 42.3338 169.806C42.3327 171.389 41.3823 172.551 39.5874 172.551ZM46.1342 172.445V162.202H50.9909V163.575H47.6127V166.321H49.8299V167.694H47.6127V171.074H51.2026V172.445H46.1342ZM59.0173 172.445L57.5388 168.01H56.3768V172.445H54.8983V162.201H57.7494C59.2279 162.201 60.6006 163.046 60.6006 165.053C60.6006 166.53 59.9666 167.376 59.0163 167.693L60.6006 172.444H59.0173V172.445ZM57.6447 163.575H56.3778V166.638H57.6447C58.595 166.638 59.1231 166.109 59.1231 165.055C59.1231 163.998 58.4892 163.575 57.6447 163.575ZM69.8938 162.202H68.4153L67.2533 167.378C67.1474 167.905 66.831 169.172 66.831 169.488C66.7252 169.172 66.4087 167.905 66.3029 167.378L65.1408 162.202H63.5565L66.196 172.447H67.2522L69.8938 162.202ZM73.5906 162.202H75.069V172.445H73.5906V162.202ZM81.9313 172.551C79.821 172.551 78.9753 170.228 78.9753 167.377C78.9753 164.313 79.821 161.99 82.0392 161.99C83.7283 161.99 84.4681 163.046 84.6787 164.525L83.1992 164.948C83.0933 163.998 82.7779 163.469 81.9323 163.469C80.7703 163.469 80.4549 165.475 80.4549 167.27C80.4549 169.172 80.8782 171.179 82.0403 171.179C82.7779 171.179 83.0944 170.649 83.4129 169.593L84.6798 170.017C84.3601 171.601 83.6225 172.551 81.9313 172.551ZM88.585 172.445V162.202H93.338V163.575H89.9577V166.321H92.1759V167.694H89.9577V171.074H93.5486V172.445H88.585ZM99.2519 172.551C97.9851 172.551 97.1395 171.916 96.5045 170.968L97.6666 170.018C98.1957 170.861 98.7228 171.18 99.3578 171.18C100.095 171.18 100.52 170.651 100.52 169.913C100.52 169.067 100.203 168.646 98.8286 167.695C97.6666 166.955 96.8231 166.217 96.8231 164.631C96.8231 163.153 97.7713 161.991 99.3578 161.991C100.52 161.991 101.257 162.52 101.892 163.469L100.836 164.314C100.309 163.679 99.9907 163.469 99.3588 163.469C98.6191 163.469 98.3026 163.892 98.3026 164.525C98.3026 165.265 98.6191 165.792 99.7801 166.427C101.047 167.27 101.998 168.116 101.998 169.806C101.996 171.389 101.046 172.551 99.2519 172.551Z" fill="white"/>
</svg>
