<svg width="320" height="47" viewBox="0 0 320 47" fill="none" xmlns="http://www.w3.org/2000/svg">
<path d="M13.0684 27.4951V38.1668C13.0684 40.483 13.2183 42.0157 13.5062 42.7532C13.7254 43.3181 14.1977 43.8019 14.9238 44.2053C15.8918 44.7468 16.9059 45.012 17.9892 45.012H19.6372V46.2566H0V45.012H1.62488C3.52651 45.012 4.89774 44.4587 5.76205 43.3641C6.30381 42.6379 6.56882 40.9093 6.56882 38.1668V30.2662C8.68813 29.2194 10.8582 28.3026 13.0684 27.4951Z" fill="white"/>
<path d="M13.0744 24.1998H13.0684V24.2013C10.9135 24.7296 8.75022 25.3365 6.56882 26.0344V8.50403C6.56882 6.17612 6.41908 4.64341 6.13098 3.90593C5.90023 3.35263 5.4395 2.8688 4.73646 2.46523C3.74533 1.92367 2.7082 1.65884 1.62488 1.65884H0V0.414062H19.6372V1.65884H17.9892C16.9059 1.65884 15.8918 1.91231 14.9238 2.43078C14.2208 2.78817 13.7369 3.32954 13.4717 4.05566C13.2067 4.78179 13.0684 6.2683 13.0684 8.50403V21.7106H27.3584C22.5703 22.2463 17.8431 23.0307 13.0744 24.1998Z" fill="white"/>
<path d="M40.7952 21.6768V21.7523V22.6783V24.8226V27.5017V38.1669C40.7952 38.775 40.8054 39.329 40.8258 39.8286C40.9222 41.613 41.1881 42.8042 41.6288 43.4016C41.8779 43.6981 42.2101 43.9659 42.6275 44.2054C43.6186 44.7469 44.6558 45.0121 45.7389 45.0121H47.3538H47.364V46.2567H47.3538H27.7268H27.7166V45.0121H27.7268H29.3517C30.3057 45.0121 31.1261 44.8692 31.8155 44.5853C32.5572 44.2705 33.1462 43.7823 33.5824 43.1222C33.6817 42.9769 33.7703 42.7885 33.8483 42.5576C33.9551 42.2274 34.0427 41.8294 34.1109 41.3626L34.1112 41.3618L34.112 41.3563C34.2282 40.5303 34.2854 39.4662 34.2854 38.1669V24.1994H24.7146C29.9924 23.0673 35.3916 22.3099 40.7952 21.6768Z" fill="white"/>
<path d="M73.3063 46.257H61.0332L45.4641 24.8222C44.9365 24.8441 44.455 24.8604 44.0198 24.8719V22.6797C47.668 22.4973 50.4724 21.5633 52.4246 19.8784C54.6256 17.977 55.7205 15.5682 55.7205 12.6412C55.7205 9.78308 54.8331 7.45535 53.07 5.65764C51.2952 3.87129 48.9442 2.97235 46.0287 2.97235C44.8746 2.97235 43.3518 3.13816 41.4689 3.47018C41.3549 3.64982 41.2607 3.84479 41.187 4.05566C40.9222 4.78179 40.7954 6.2683 40.7954 8.50403V20.7598C38.5981 20.8444 36.4311 20.9532 34.2856 21.0976V8.50403C34.2856 5.623 33.9746 3.83684 33.3407 3.14517L33.3021 3.10239C33.069 2.87221 32.7783 2.65944 32.4289 2.46523C31.4608 1.92367 30.4352 1.65884 29.3519 1.65884H27.727H27.7168V0.414062H27.727H44.4038H47.3642V0.463271C50.7578 0.583472 53.357 0.922118 55.1674 1.47428C57.4836 2.18867 59.4427 3.50236 61.0447 5.40399C62.6581 7.30543 63.4646 9.5758 63.4646 12.2149C63.4646 15.038 62.5426 17.4812 60.7104 19.5557C58.8667 21.6299 56.0317 23.0935 52.1711 23.9578L61.6556 37.0837C63.822 40.1031 65.6775 42.1199 67.2331 43.111C68.7773 44.1135 70.8056 44.7357 73.3063 45.0124V46.257Z" fill="white"/>
<path d="M101.169 0.158203L102.164 15.0712H101.169C99.8328 10.6084 97.9327 7.38272 95.4583 5.42752C92.9839 3.46116 90.0233 2.47798 86.5547 2.47798C83.6607 2.47798 81.0314 3.2181 78.6895 4.69837C76.3475 6.17863 74.5029 8.53154 73.1549 11.7794C71.8185 15.0159 71.1447 19.0479 71.1447 23.8644C71.1447 27.8412 71.7743 31.2877 73.0446 34.2041C74.3151 37.1203 76.226 39.3517 78.7669 40.9094C81.3186 42.4669 84.224 43.2404 87.4825 43.2404C90.3217 43.2404 92.8292 42.6327 94.9944 41.4177C97.1706 40.2024 99.5567 37.7832 102.153 34.1598L103.158 34.8225C100.96 38.7221 98.3969 41.5723 95.4693 43.3838C92.5421 45.1844 89.0623 46.0903 85.0414 46.0903C77.7837 46.0903 72.161 43.3948 68.1841 37.993C65.2124 33.972 63.7212 29.2441 63.7212 23.8089C63.7212 19.4234 64.7044 15.3915 66.6596 11.724C68.6148 8.04544 71.3103 5.20662 74.7348 3.18498C78.1704 1.16353 81.9152 0.158203 85.9803 0.158203C89.1397 0.158203 92.2547 0.93146 95.337 2.48896C96.2316 2.96408 96.8835 3.20694 97.2698 3.20694C97.8443 3.20694 98.3526 2.9972 98.7832 2.58852C99.3469 2.00285 99.7444 1.19666 99.9765 0.158203H101.169Z" fill="white"/>
<path d="M140.943 0.0258789L142.073 13.9186H140.876C139.735 10.4731 138.251 7.88074 136.445 6.13036C133.83 3.61542 130.473 2.35246 126.374 2.35246C120.791 2.35246 116.536 4.56832 113.623 9.01082C111.185 12.7442 109.967 17.2091 109.967 22.3828C109.967 26.5817 110.776 30.4039 112.404 33.8715C114.022 37.328 116.149 39.8649 118.774 41.4824C121.4 43.0889 124.103 43.8978 126.873 43.8978C128.49 43.8978 130.064 43.6871 131.581 43.2773C133.088 42.8672 134.55 42.2581 135.957 41.4493V28.6756C135.957 26.4598 135.791 25.0085 135.459 24.3327C135.115 23.6458 134.595 23.1252 133.897 22.7707C133.188 22.4049 131.947 22.2276 130.174 22.2276V21.0312H147.191V22.2276H146.383C144.699 22.2276 143.546 22.7926 142.915 23.9227C142.483 24.7204 142.272 26.3047 142.272 28.6756V42.1803C139.791 43.532 137.331 44.5181 134.916 45.1495C132.49 45.781 129.798 46.0913 126.84 46.0913C118.342 46.0913 111.894 43.3658 107.485 37.904C104.172 33.8161 102.522 29.0854 102.522 23.7455C102.522 19.8679 103.453 16.1454 105.314 12.6004C107.518 8.37934 110.543 5.12219 114.387 2.85107C117.611 0.967797 121.411 0.0258789 125.809 0.0258789C127.405 0.0258789 128.856 0.158947 130.163 0.413734C131.47 0.679689 133.321 1.24454 135.725 2.131C136.932 2.58511 137.752 2.81794 138.162 2.81794C138.572 2.81794 138.916 2.6294 139.215 2.2529C139.503 1.87602 139.68 1.13381 139.746 0.0258789H140.943Z" fill="white"/>
<path fill-rule="evenodd" clip-rule="evenodd" d="M159.829 46.2308H160.406V0.570312H159.829V46.2308Z" fill="white"/>
<path d="M176.321 6.07742H182.298V2.48351C182.298 1.85014 182.256 1.43313 182.174 1.23229C182.11 1.08181 181.977 0.950249 181.772 0.840271C181.5 0.693191 181.211 0.620875 180.906 0.620875H180.448V0.282238H185.977V0.620875H185.52C185.215 0.620875 184.926 0.689968 184.653 0.830991C184.449 0.928098 184.309 1.07555 184.238 1.27318C184.163 1.4708 184.128 1.87512 184.128 2.48351V10.5553C184.128 11.1857 184.17 11.6027 184.251 11.8035C184.316 11.9572 184.446 12.0888 184.644 12.1984C184.923 12.3458 185.215 12.4181 185.52 12.4181H185.977V12.7568H180.448V12.4181H180.906C181.435 12.4181 181.818 12.2676 182.061 11.9697C182.22 11.7721 182.298 11.3017 182.298 10.5553V6.7547H176.321V10.5553C176.321 11.1857 176.363 11.6027 176.444 11.8035C176.506 11.9572 176.639 12.0888 176.843 12.1984C177.116 12.3458 177.401 12.4181 177.706 12.4181H178.171V12.7568H172.641V12.4181H173.099C173.634 12.4181 174.02 12.2676 174.264 11.9697C174.416 11.7721 174.491 11.3017 174.491 10.5553V2.48351C174.491 1.85014 174.449 1.43313 174.368 1.23229C174.303 1.08181 174.173 0.950249 173.975 0.840271C173.696 0.693191 173.404 0.620875 173.099 0.620875H172.641V0.282238H178.171V0.620875H177.706C177.401 0.620875 177.116 0.689968 176.843 0.830991C176.645 0.928098 176.509 1.07555 176.435 1.27318C176.36 1.4708 176.321 1.87512 176.321 2.48351V6.07742ZM195.676 0.620875V0.282238H200.212V0.620875H199.729C199.222 0.620875 198.833 0.824746 198.561 1.23551C198.428 1.42689 198.363 1.86585 198.363 2.55904V7.6139C198.363 8.86512 198.236 9.8341 197.98 10.5241C197.724 11.2139 197.217 11.8065 196.468 12.2989C195.718 12.7912 194.699 13.039 193.408 13.039C192.003 13.039 190.935 12.8037 190.209 12.3303C189.479 11.8597 188.963 11.2233 188.661 10.4268C188.456 9.88124 188.356 8.85869 188.356 7.35666V2.48351C188.356 1.71839 188.245 1.21677 188.028 0.97845C187.811 0.740131 187.457 0.620875 186.97 0.620875H186.487V0.282238H192.055V0.620875H191.561C191.03 0.620875 190.65 0.784048 190.423 1.10698C190.264 1.32637 190.186 1.78748 190.186 2.48351V7.91809C190.186 8.40097 190.231 8.95617 190.322 9.5833C190.416 10.2072 190.582 10.6933 190.822 11.0446C191.065 11.3925 191.412 11.6812 191.863 11.9101C192.318 12.1357 192.873 12.2487 193.531 12.2487C194.375 12.2487 195.131 12.0698 195.796 11.7157C196.461 11.3613 196.915 10.9034 197.159 10.3514C197.402 9.79644 197.526 8.85566 197.526 7.53231V2.48351C197.526 1.7059 197.438 1.21999 197.26 1.02559C197.013 0.755847 196.646 0.620875 196.159 0.620875H195.676ZM208.392 12.7568L203.408 2.26109V10.593C203.408 11.3613 203.496 11.8412 203.668 12.0324C203.905 12.2894 204.281 12.4181 204.797 12.4181H205.258V12.7568H200.722V12.4181H201.186C201.737 12.4181 202.127 12.258 202.36 11.9383C202.5 11.7409 202.571 11.2922 202.571 10.593V2.44603C202.571 1.89405 202.506 1.49276 202.38 1.24819C202.289 1.06931 202.123 0.921848 201.883 0.799565C201.64 0.680501 201.254 0.620875 200.722 0.620875V0.282238H204.421L209.074 10.0348L213.685 0.282238H217.348V0.620875H216.897C216.335 0.620875 215.943 0.781018 215.709 1.10073C215.57 1.29816 215.498 1.74659 215.498 2.44603V10.593C215.498 11.3613 215.589 11.8412 215.768 12.0324C216.005 12.2894 216.381 12.4181 216.897 12.4181H217.348V12.7568H211.819V12.4181H212.283C212.841 12.4181 213.23 12.258 213.457 11.9383C213.597 11.7409 213.668 11.2922 213.668 10.593V2.26109L208.704 12.7568H208.392ZM226.661 8.5986H221.66L220.797 10.5523C220.583 11.035 220.473 11.3988 220.473 11.6371C220.473 11.8253 220.567 11.9947 220.755 12.1391C220.94 12.28 221.345 12.374 221.965 12.4181V12.7568H217.896V12.4181C218.435 12.3271 218.782 12.208 218.941 12.0606C219.266 11.7656 219.623 11.1669 220.015 10.2668L224.555 0H224.876L229.363 10.3766C229.724 11.2106 230.051 11.7501 230.346 12.0009C230.642 12.2487 231.051 12.3867 231.58 12.4181V12.7568H226.492V12.4181C227.004 12.393 227.352 12.3114 227.533 12.1704C227.715 12.0291 227.803 11.8567 227.803 11.653C227.803 11.3833 227.676 10.9568 227.423 10.3734L226.661 8.5986ZM226.369 7.92131L224.194 2.88803L221.962 7.92131H226.369ZM231.541 0.282238H235.009L242.917 9.64898V2.44603C242.917 1.67769 242.826 1.19784 242.648 1.00666C242.411 0.749411 242.034 0.620875 241.522 0.620875H241.067V0.282238H245.604V0.620875H245.143C244.588 0.620875 244.198 0.781018 243.965 1.10073C243.825 1.29816 243.754 1.74659 243.754 2.44603V12.9574H243.41L234.915 2.91017V10.593C234.915 11.3613 235.003 11.8412 235.175 12.0324C235.418 12.2894 235.795 12.4181 236.304 12.4181H236.765V12.7568H232.229V12.4181H232.683C233.241 12.4181 233.634 12.258 233.867 11.9383C234.007 11.7409 234.078 11.2922 234.078 10.593V1.91924C233.705 1.49579 233.419 1.21677 233.228 1.0818C233.033 0.947027 232.751 0.821715 232.378 0.702461C232.193 0.64908 231.914 0.620875 231.541 0.620875V0.282238ZM263.894 12.7568H260.439L256.055 6.92393C255.74 6.93661 255.484 6.94286 255.286 6.94286C255.205 6.94286 255.117 6.93983 255.027 6.93661C254.932 6.93358 254.838 6.93017 254.738 6.92393V10.5553C254.738 11.3392 254.825 11.8253 255.004 12.0134C255.244 12.2832 255.604 12.4181 256.084 12.4181H256.587V12.7568H251.058V12.4181H251.541C252.087 12.4181 252.476 12.2455 252.709 11.9038C252.843 11.7157 252.908 11.264 252.908 10.5553V2.48351C252.908 1.69984 252.82 1.21374 252.642 1.02559C252.395 0.755847 252.028 0.620875 251.541 0.620875H251.058V0.282238H255.757C257.129 0.282238 258.138 0.379345 258.787 0.570908C259.439 0.765122 259.991 1.12269 260.442 1.64022C260.896 2.15736 261.124 2.7754 261.124 3.49338C261.124 4.26153 260.864 4.92652 260.348 5.4908C259.829 6.05545 259.031 6.45373 257.944 6.68864L260.614 10.2606C261.224 11.0821 261.746 11.6309 262.185 11.9006C262.619 12.1736 263.19 12.3428 263.894 12.4181V12.7568ZM254.738 6.34072C254.858 6.34072 254.961 6.34072 255.049 6.34375C255.137 6.34697 255.208 6.35 255.263 6.35C256.48 6.35 257.398 6.09294 258.015 5.57863C258.635 5.06129 258.943 4.40597 258.943 3.60943C258.943 2.83181 258.693 2.19825 258.197 1.70912C257.697 1.22302 257.035 0.97845 256.214 0.97845C255.851 0.97845 255.357 1.03486 254.738 1.14787V6.34072ZM269.729 12.4181V12.7568H264.2V12.4181H264.657C265.192 12.4181 265.579 12.2676 265.822 11.9697C265.974 11.7721 266.049 11.3017 266.049 10.5553V2.48351C266.049 1.85335 266.007 1.43635 265.925 1.23551C265.861 1.08181 265.731 0.950249 265.533 0.840271C265.254 0.693191 264.962 0.620875 264.657 0.620875H264.2V0.282238H269.729V0.620875H269.264C268.739 0.620875 268.356 0.771361 268.116 1.06931C267.957 1.26693 267.879 1.73732 267.879 2.48351V10.5553C267.879 11.1857 267.921 11.6027 268.002 11.8035C268.064 11.9572 268.197 12.0888 268.401 12.1984C268.674 12.3458 268.959 12.4181 269.264 12.4181H269.729ZM282.13 0L282.461 3.93235H282.111C281.776 2.95731 281.342 2.22342 280.813 1.72786C280.047 1.01593 279.064 0.658733 277.863 0.658733C276.228 0.658733 274.982 1.28567 274.128 2.54314C273.415 3.60015 273.058 4.86386 273.058 6.32823C273.058 7.51679 273.294 8.5986 273.771 9.58008C274.245 10.5585 274.868 11.2765 275.637 11.7344C276.406 12.1891 277.198 12.4181 278.009 12.4181C278.483 12.4181 278.944 12.3585 279.388 12.2425C279.829 12.1264 280.258 11.9538 280.67 11.725V8.10947C280.67 7.48216 280.621 7.07138 280.524 6.8802C280.423 6.68561 280.271 6.53834 280.066 6.43783C279.859 6.33448 279.495 6.28431 278.976 6.28431V5.94567H283.96V6.28431H283.723C283.23 6.28431 282.893 6.44407 282.708 6.76416C282.581 6.9898 282.52 7.43824 282.52 8.10947V11.932C281.793 12.3146 281.072 12.5936 280.365 12.7723C279.654 12.9512 278.866 13.039 278 13.039C275.511 13.039 273.622 12.2676 272.331 10.7215C271.361 9.56437 270.877 8.22551 270.877 6.71382C270.877 5.6163 271.15 4.5627 271.695 3.55926C272.341 2.36444 273.226 1.4424 274.352 0.799565C275.297 0.266708 276.41 0 277.698 0C278.165 0 278.59 0.0376654 278.973 0.109786C279.356 0.184935 279.898 0.344885 280.602 0.595697C280.955 0.724416 281.196 0.790295 281.316 0.790295C281.436 0.790295 281.536 0.736911 281.624 0.630339C281.708 0.523768 281.76 0.313657 281.78 0H282.13ZM288.266 6.07742H294.243V2.48351C294.243 1.85014 294.201 1.43313 294.12 1.23229C294.055 1.08181 293.922 0.950249 293.717 0.840271C293.445 0.693191 293.156 0.620875 292.851 0.620875H292.393V0.282238H297.923V0.620875H297.465C297.16 0.620875 296.871 0.689968 296.598 0.830991C296.394 0.928098 296.255 1.07555 296.183 1.27318C296.109 1.4708 296.073 1.87512 296.073 2.48351V10.5553C296.073 11.1857 296.115 11.6027 296.196 11.8035C296.261 11.9572 296.391 12.0888 296.589 12.1984C296.868 12.3458 297.16 12.4181 297.465 12.4181H297.923V12.7568H292.393V12.4181H292.851C293.38 12.4181 293.763 12.2676 294.006 11.9697C294.165 11.7721 294.243 11.3017 294.243 10.5553V6.7547H288.266V10.5553C288.266 11.1857 288.308 11.6027 288.389 11.8035C288.451 11.9572 288.584 12.0888 288.788 12.1984C289.061 12.3458 289.347 12.4181 289.651 12.4181H290.116V12.7568H284.586V12.4181H285.044C285.579 12.4181 285.965 12.2676 286.209 11.9697C286.361 11.7721 286.436 11.3017 286.436 10.5553V2.48351C286.436 1.85014 286.394 1.43313 286.312 1.23229C286.248 1.08181 286.118 0.950249 285.92 0.840271C285.641 0.693191 285.349 0.620875 285.044 0.620875H284.586V0.282238H290.116V0.620875H289.651C289.347 0.620875 289.061 0.689968 288.788 0.830991C288.59 0.928098 288.454 1.07555 288.38 1.27318C288.305 1.4708 288.266 1.87512 288.266 2.48351V6.07742ZM309.587 0.282238L309.724 3.21437H309.364C309.292 2.69988 309.198 2.32999 309.078 2.11041C308.88 1.75606 308.621 1.49275 308.293 1.32637C307.965 1.15714 307.537 1.07253 307.005 1.07253H305.187V10.593C305.187 11.3613 305.272 11.8412 305.444 12.0324C305.684 12.2894 306.054 12.4181 306.554 12.4181H306.998V12.7568H301.508V12.4181H301.972C302.524 12.4181 302.913 12.258 303.147 11.9383C303.286 11.7409 303.357 11.2922 303.357 10.593V1.07253H301.81C301.206 1.07253 300.778 1.11625 300.525 1.20105C300.194 1.31709 299.915 1.5397 299.678 1.8721C299.444 2.20147 299.305 2.6499 299.259 3.21437H298.899L299.036 0.282238H309.587ZM319.143 0V4.30867H318.793C318.679 3.4809 318.475 2.82235 318.18 2.33303C317.884 1.8439 317.462 1.45509 316.914 1.16661C316.369 0.878124 315.805 0.733886 315.221 0.733886C314.558 0.733886 314.013 0.928101 313.582 1.3171C313.15 1.7059 312.933 2.15111 312.933 2.64668C312.933 3.02621 313.069 3.37413 313.342 3.68779C313.738 4.1455 314.672 4.76013 316.152 5.52525C317.359 6.15257 318.183 6.63242 318.624 6.96463C319.065 7.30025 319.406 7.69227 319.643 8.14695C319.88 8.60163 320 9.07505 320 9.57383C320 10.5178 319.62 11.3299 318.864 12.0134C318.105 12.6972 317.128 13.039 315.938 13.039C315.561 13.039 315.211 13.0108 314.88 12.9542C314.682 12.923 314.276 12.81 313.656 12.6156C313.04 12.4212 312.647 12.3241 312.482 12.3241C312.323 12.3241 312.196 12.371 312.105 12.4619C312.015 12.5559 311.946 12.7473 311.901 13.039H311.551V8.76782H311.901C312.067 9.66166 312.287 10.3325 312.566 10.7749C312.845 11.2203 313.273 11.5902 313.848 11.8819C314.422 12.1766 315.052 12.3241 315.736 12.3241C316.528 12.3241 317.158 12.1202 317.615 11.7157C318.076 11.3079 318.306 10.8283 318.306 10.2763C318.306 9.96907 318.219 9.65863 318.047 9.34479C317.871 9.03132 317.602 8.73962 317.235 8.46685C316.989 8.28191 316.311 7.8931 315.204 7.29702C314.098 6.70454 313.309 6.22771 312.842 5.87355C312.375 5.519 312.018 5.12395 311.778 4.69748C311.535 4.26778 311.414 3.79436 311.414 3.28005C311.414 2.3864 311.771 1.61504 312.482 0.968986C313.193 0.323121 314.101 0 315.198 0C315.886 0 316.613 0.162984 317.382 0.486106C317.738 0.639811 317.988 0.714957 318.134 0.714957C318.3 0.714957 318.436 0.668009 318.54 0.573931C318.644 0.476824 318.728 0.288481 318.793 0H319.143ZM184.031 16.6704L184.323 20.9037H184.031C183.638 19.6368 183.08 18.7212 182.353 18.166C181.626 17.608 180.756 17.3289 179.738 17.3289C178.888 17.3289 178.115 17.5391 177.427 17.9593C176.739 18.3793 176.198 19.0473 175.802 19.9692C175.409 20.888 175.211 22.0327 175.211 23.3999C175.211 24.5287 175.396 25.5071 175.769 26.3351C176.142 27.1629 176.704 27.7964 177.45 28.2384C178.2 28.6808 179.053 28.9002 180.01 28.9002C180.844 28.9002 181.58 28.7277 182.217 28.3829C182.856 28.038 183.557 27.351 184.319 26.3226L184.615 26.5108C183.969 27.6175 183.216 28.4268 182.356 28.9409C181.496 29.4522 180.474 29.7092 179.293 29.7092C177.161 29.7092 175.51 28.9443 174.342 27.4106C173.469 26.2692 173.031 24.9269 173.031 23.3842C173.031 22.1392 173.319 20.9948 173.894 19.9537C174.468 18.9093 175.26 18.1033 176.266 17.5296C177.275 16.9557 178.375 16.6704 179.569 16.6704C180.497 16.6704 181.412 16.89 182.317 17.332C182.58 17.4669 182.772 17.5358 182.885 17.5358C183.054 17.5358 183.203 17.4762 183.33 17.3602C183.495 17.1942 183.612 16.9651 183.68 16.6704H184.031ZM192.409 16.6704C194.079 16.6704 195.53 17.285 196.753 18.5143C197.98 19.7436 198.593 21.2768 198.593 23.1177C198.593 25.0117 197.976 26.5827 196.74 27.8339C195.507 29.0851 194.011 29.7092 192.256 29.7092C190.484 29.7092 188.995 29.0976 187.788 27.878C186.581 26.658 185.977 25.0806 185.977 23.1427C185.977 21.164 186.675 19.5492 188.067 18.2979C189.277 17.2127 190.724 16.6704 192.409 16.6704ZM192.227 17.3289C191.078 17.3289 190.153 17.7429 189.459 18.5707C188.593 19.6023 188.158 21.1108 188.158 23.0989C188.158 25.134 188.605 26.7019 189.504 27.7995C190.196 28.6337 191.104 29.0507 192.236 29.0507C193.447 29.0507 194.443 28.593 195.231 27.6804C196.02 26.7646 196.412 25.3252 196.412 23.356C196.412 21.2204 195.978 19.6275 195.111 18.5802C194.417 17.746 193.457 17.3289 192.227 17.3289ZM199.096 16.9526H202.565L210.472 26.3194V19.1162C210.472 18.3479 210.381 17.8682 210.203 17.6769C209.966 17.4198 209.589 17.2913 209.077 17.2913H208.623V16.9526H213.159V17.2913H212.698C212.143 17.2913 211.754 17.4512 211.52 17.7711C211.381 17.9686 211.309 18.417 211.309 19.1162V29.6278H210.965L202.471 19.5806V27.2634C202.471 28.0317 202.558 28.5114 202.73 28.7028C202.973 28.9598 203.35 29.0883 203.859 29.0883H204.32V29.427H199.784V29.0883H200.238C200.796 29.0883 201.189 28.9284 201.422 28.6087C201.562 28.4111 201.633 27.9624 201.633 27.2634V18.5894C201.26 18.166 200.975 17.887 200.783 17.7522C200.588 17.6172 200.306 17.4919 199.933 17.3729C199.748 17.3195 199.469 17.2913 199.096 17.2913V16.9526ZM222.351 16.6704V20.9789H222.001C221.887 20.1511 221.683 19.4927 221.388 19.0034C221.092 18.5143 220.67 18.1253 220.122 17.837C219.577 17.5483 219.012 17.4043 218.428 17.4043C217.767 17.4043 217.221 17.5985 216.79 17.9875C216.358 18.3761 216.141 18.8215 216.141 19.3171C216.141 19.6964 216.277 20.0445 216.55 20.3582C216.946 20.8159 217.88 21.4305 219.36 22.1956C220.567 22.823 221.391 23.3026 221.832 23.635C222.273 23.9706 222.614 24.3627 222.851 24.8173C223.088 25.272 223.208 25.7454 223.208 26.244C223.208 27.188 222.828 28.0003 222.072 28.6838C221.313 29.3674 220.336 29.7092 219.145 29.7092C218.769 29.7092 218.419 29.6812 218.088 29.6246C217.89 29.5934 217.484 29.4804 216.864 29.286C216.248 29.0914 215.855 28.9943 215.69 28.9943C215.531 28.9943 215.404 29.0414 215.313 29.1323C215.222 29.2263 215.154 29.4177 215.109 29.7092H214.759V25.4382H215.109C215.275 26.3319 215.495 27.0029 215.774 27.4453C216.053 27.8905 216.481 28.2604 217.056 28.5523C217.63 28.8468 218.26 28.9943 218.944 28.9943C219.736 28.9943 220.366 28.7904 220.823 28.3859C221.284 27.9783 221.514 27.4985 221.514 26.9465C221.514 26.6393 221.427 26.3288 221.255 26.0152C221.08 25.7017 220.81 25.41 220.444 25.1371C220.197 24.9521 219.519 24.5633 218.412 23.9674C217.306 23.3749 216.517 22.8981 216.05 22.5438C215.583 22.1894 215.226 21.7943 214.986 21.3679C214.742 20.9382 214.622 20.4646 214.622 19.9504C214.622 19.0568 214.979 18.2853 215.69 17.6392C216.4 16.9933 217.309 16.6704 218.406 16.6704C219.094 16.6704 219.821 16.8334 220.589 17.1563C220.946 17.31 221.196 17.3854 221.342 17.3854C221.508 17.3854 221.644 17.3382 221.748 17.2441C221.851 17.147 221.936 16.9589 222.001 16.6704H222.351ZM233.549 17.2913V16.9526H238.085V17.2913H237.602C237.096 17.2913 236.706 17.495 236.434 17.9059C236.301 18.0971 236.236 18.5361 236.236 19.2292V24.2841C236.236 25.5353 236.109 26.5045 235.853 27.1943C235.597 27.8843 235.09 28.4767 234.341 28.9691C233.591 29.4614 232.572 29.7092 231.281 29.7092C229.876 29.7092 228.809 29.4741 228.082 29.0005C227.351 28.5301 226.836 27.8935 226.534 27.097C226.329 26.5514 226.229 25.5291 226.229 24.0271V19.1539C226.229 18.3888 226.118 17.887 225.901 17.6488C225.684 17.4105 225.33 17.2913 224.843 17.2913H224.36V16.9526H229.928V17.2913H229.434C228.902 17.2913 228.523 17.4543 228.296 17.7774C228.137 17.9968 228.059 18.4579 228.059 19.1539V24.5883C228.059 25.0714 228.104 25.6264 228.195 26.2537C228.289 26.8776 228.455 27.3637 228.695 27.7148C228.938 28.0629 229.285 28.3514 229.736 28.5805C230.191 28.8061 230.746 28.9191 231.404 28.9191C232.248 28.9191 233.004 28.7402 233.669 28.3859C234.334 28.0317 234.788 27.5738 235.032 27.0218C235.275 26.4668 235.399 25.5261 235.399 24.2027V19.1539C235.399 18.3761 235.311 17.8902 235.133 17.6958C234.886 17.426 234.519 17.2913 234.032 17.2913H233.549ZM249.478 25.984L249.789 26.0496L248.679 29.427H238.692V29.0883H239.176C239.721 29.0883 240.11 28.9191 240.344 28.5771C240.477 28.3829 240.542 27.9312 240.542 27.2255V19.1539C240.542 18.3761 240.454 17.8902 240.275 17.6958C240.029 17.426 239.662 17.2913 239.176 17.2913H238.692V16.9526H244.533V17.2913C243.848 17.285 243.368 17.3447 243.089 17.4732C242.813 17.5985 242.625 17.7617 242.524 17.9529C242.424 18.1474 242.372 18.6114 242.372 19.3421V27.207C242.372 27.7179 242.424 28.0662 242.524 28.2574C242.599 28.3889 242.719 28.483 242.878 28.5458C243.034 28.6053 243.53 28.6367 244.364 28.6367H245.305C246.298 28.6367 246.992 28.5678 247.391 28.4268C247.79 28.2856 248.157 28.0347 248.488 27.6772C248.816 27.3196 249.147 26.7553 249.478 25.984ZM259.679 16.9526L259.816 19.8848H259.455C259.384 19.3703 259.29 19.0004 259.17 18.7806C258.972 18.4265 258.712 18.163 258.384 17.9968C258.057 17.8273 257.628 17.7429 257.096 17.7429H255.279V27.2634C255.279 28.0317 255.364 28.5114 255.536 28.7028C255.776 28.9598 256.146 29.0883 256.645 29.0883H257.09V29.427H251.6V29.0883H252.064C252.615 29.0883 253.005 28.9284 253.238 28.6087C253.378 28.4111 253.449 27.9624 253.449 27.2634V17.7429H251.902C251.298 17.7429 250.87 17.7867 250.617 17.8715C250.286 17.9875 250.007 18.2101 249.77 18.5425C249.536 18.8717 249.396 19.3201 249.351 19.8848H248.991L249.127 16.9526H259.679ZM266.315 29.0883V29.427H260.786V29.0883H261.243C261.779 29.0883 262.165 28.9379 262.408 28.6401C262.56 28.4423 262.635 27.9721 262.635 27.2255V19.1539C262.635 18.5236 262.593 18.1067 262.512 17.9059C262.447 17.7522 262.317 17.6206 262.119 17.5107C261.84 17.3634 261.548 17.2913 261.243 17.2913H260.786V16.9526H266.315V17.2913H265.851C265.325 17.2913 264.942 17.4418 264.702 17.7395C264.543 17.9373 264.465 18.4075 264.465 19.1539V27.2255C264.465 27.856 264.508 28.2731 264.589 28.4737C264.65 28.6274 264.783 28.759 264.988 28.8688C265.26 29.0162 265.546 29.0883 265.851 29.0883H266.315ZM266.523 16.9526H269.991L277.899 26.3194V19.1162C277.899 18.3479 277.808 17.8682 277.629 17.6769C277.393 17.4198 277.016 17.2913 276.504 17.2913H276.049V16.9526H280.585V17.2913H280.125C279.57 17.2913 279.18 17.4512 278.947 17.7711C278.807 17.9686 278.736 18.417 278.736 19.1162V29.6278H278.392L269.897 19.5806V27.2634C269.897 28.0317 269.985 28.5114 270.157 28.7028C270.4 28.9598 270.777 29.0883 271.286 29.0883H271.747V29.427H267.21V29.0883H267.665C268.223 29.0883 268.616 28.9284 268.849 28.6087C268.988 28.4111 269.06 27.9624 269.06 27.2634V18.5894C268.687 18.166 268.401 17.887 268.21 17.7522C268.015 17.6172 267.733 17.4919 267.36 17.3729C267.175 17.3195 266.896 17.2913 266.523 17.2913V16.9526ZM292.776 16.6704L293.107 20.6028H292.757C292.422 19.6275 291.988 18.8936 291.459 18.3983C290.693 17.6863 289.71 17.3289 288.509 17.3289C286.874 17.3289 285.628 17.9561 284.774 19.2135C284.061 20.2704 283.704 21.5341 283.704 22.9984C283.704 24.187 283.94 25.2688 284.417 26.2503C284.891 27.2287 285.514 27.9469 286.283 28.4048C287.052 28.8595 287.844 29.0883 288.655 29.0883C289.129 29.0883 289.589 29.0287 290.034 28.9127C290.475 28.7968 290.904 28.6242 291.316 28.3953V24.7797C291.316 24.1525 291.267 23.7418 291.17 23.5504C291.069 23.356 290.917 23.2085 290.712 23.1082C290.505 23.0047 290.141 22.9547 289.622 22.9547V22.6161H294.606V22.9547H294.369C293.876 22.9547 293.539 23.1145 293.354 23.4346C293.227 23.6602 293.166 24.1086 293.166 24.7797V28.6022C292.439 28.985 291.718 29.264 291.011 29.4427C290.3 29.6216 289.512 29.7092 288.646 29.7092C286.157 29.7092 284.268 28.9379 282.977 27.3919C282.007 26.2348 281.523 24.8957 281.523 23.3842C281.523 22.2867 281.796 21.2331 282.341 20.2297C282.987 19.0348 283.872 18.1128 284.998 17.47C285.942 16.9369 287.056 16.6704 288.344 16.6704C288.811 16.6704 289.236 16.7081 289.619 16.78C290.002 16.8553 290.544 17.0153 291.248 17.2661C291.601 17.3946 291.841 17.4605 291.962 17.4605C292.082 17.4605 292.182 17.4073 292.27 17.3006C292.354 17.1942 292.406 16.9841 292.426 16.6704H292.776ZM184.245 33.3406L184.575 37.2732H184.225C183.891 36.2979 183.456 35.564 182.927 35.0687C182.161 34.3565 181.178 33.9993 179.978 33.9993C178.342 33.9993 177.096 34.6263 176.243 35.8837C175.529 36.9408 175.172 38.2045 175.172 39.6688C175.172 40.8574 175.409 41.9392 175.886 42.9207C176.36 43.8991 176.983 44.6171 177.752 45.075C178.521 45.5297 179.312 45.7587 180.124 45.7587C180.597 45.7587 181.058 45.6991 181.503 45.5831C181.944 45.467 182.372 45.2946 182.785 45.0655V41.4501C182.785 40.8229 182.736 40.412 182.638 40.2208C182.538 40.0262 182.385 39.8789 182.181 39.7784C181.973 39.6751 181.61 39.6249 181.091 39.6249V39.2863H186.075V39.6249H185.838C185.345 39.6249 185.007 39.7849 184.822 40.1048C184.696 40.3304 184.634 40.7788 184.634 41.4501V45.2726C183.907 45.6552 183.187 45.9342 182.48 46.1129C181.769 46.2918 180.98 46.3796 180.114 46.3796C177.625 46.3796 175.737 45.6083 174.445 44.0621C173.475 42.9052 172.992 41.5661 172.992 40.0544C172.992 38.9571 173.264 37.9033 173.809 36.8999C174.455 35.7051 175.341 34.783 176.467 34.1402C177.411 33.6073 178.524 33.3406 179.812 33.3406C180.279 33.3406 180.704 33.3783 181.088 33.4504C181.47 33.5255 182.012 33.6855 182.716 33.9365C183.07 34.065 183.31 34.1309 183.43 34.1309C183.55 34.1309 183.651 34.0775 183.739 33.9709C183.823 33.8644 183.875 33.6543 183.894 33.3406H184.245ZM199.537 46.0974H196.082L191.698 40.2645C191.383 40.2772 191.127 40.2835 190.929 40.2835C190.848 40.2835 190.76 40.2804 190.669 40.2772C190.575 40.2742 190.481 40.2708 190.38 40.2645V43.8959C190.38 44.6798 190.468 45.1659 190.647 45.3542C190.887 45.6238 191.247 45.7587 191.727 45.7587H192.23V46.0974H186.701V45.7587H187.184C187.729 45.7587 188.119 45.5861 188.352 45.2444C188.485 45.0563 188.551 44.6046 188.551 43.8959V35.8241C188.551 35.0404 188.463 34.5543 188.285 34.3662C188.038 34.0964 187.671 33.9615 187.184 33.9615H186.701V33.6228H191.399C192.772 33.6228 193.781 33.7199 194.43 33.9115C195.082 34.1057 195.634 34.4633 196.085 34.9808C196.539 35.4982 196.766 36.116 196.766 36.834C196.766 37.6021 196.507 38.2671 195.991 38.8314C195.472 39.3961 194.673 39.7943 193.587 40.0294L196.257 43.6012C196.867 44.4227 197.389 44.9715 197.827 45.2412C198.262 45.5142 198.833 45.6834 199.537 45.7587V46.0974ZM190.38 39.6813C190.501 39.6813 190.604 39.6813 190.692 39.6844C190.78 39.6876 190.851 39.6908 190.906 39.6908C192.123 39.6908 193.041 39.4335 193.658 38.9192C194.277 38.4019 194.586 37.7466 194.586 36.95C194.586 36.1724 194.336 35.5389 193.839 35.0497C193.34 34.5636 192.678 34.3191 191.857 34.3191C191.493 34.3191 191 34.3755 190.38 34.4885V39.6813ZM206.468 33.3406C208.139 33.3406 209.589 33.9552 210.813 35.1845C212.039 36.4139 212.653 37.9472 212.653 39.7881C212.653 41.6821 212.036 43.2531 210.8 44.5043C209.567 45.7555 208.071 46.3796 206.316 46.3796C204.544 46.3796 203.055 45.768 201.847 44.5482C200.641 43.3282 200.037 41.751 200.037 39.8129C200.037 37.8344 200.735 36.2194 202.127 34.9681C203.337 33.8831 204.784 33.3406 206.468 33.3406ZM206.287 33.9993C205.138 33.9993 204.213 34.4131 203.519 35.2409C202.652 36.2727 202.217 37.781 202.217 39.7692C202.217 41.8044 202.665 43.3723 203.564 44.4699C204.255 45.3041 205.164 45.7209 206.296 45.7209C207.506 45.7209 208.503 45.2634 209.291 44.3508C210.08 43.435 210.472 41.9956 210.472 40.0262C210.472 37.8908 210.037 36.2979 209.171 35.2506C208.477 34.4162 207.516 33.9993 206.287 33.9993ZM222.721 33.9615V33.6228H227.257V33.9615H226.774C226.268 33.9615 225.878 34.1654 225.606 34.5761C225.473 34.7675 225.408 35.2065 225.408 35.8996V40.9545C225.408 42.2057 225.281 43.1747 225.025 43.8647C224.769 44.5545 224.262 45.1471 223.513 45.6395C222.763 46.1318 221.745 46.3796 220.453 46.3796C219.048 46.3796 217.981 46.1443 217.254 45.6709C216.524 45.2003 216.008 44.5639 215.706 43.7674C215.501 43.2219 215.401 42.1993 215.401 40.6973V35.8241C215.401 35.059 215.291 34.5574 215.073 34.3191C214.856 34.0807 214.502 33.9615 214.016 33.9615H213.532V33.6228H219.1V33.9615H218.607C218.075 33.9615 217.695 34.1247 217.468 34.4476C217.309 34.667 217.231 35.1283 217.231 35.8241V41.2587C217.231 41.7418 217.276 42.2968 217.367 42.9239C217.461 43.548 217.627 44.0339 217.867 44.3852C218.11 44.7332 218.458 45.0218 218.909 45.2507C219.363 45.4765 219.918 45.5893 220.577 45.5893C221.42 45.5893 222.176 45.4104 222.841 45.0563C223.507 44.7019 223.961 44.244 224.204 43.6921C224.447 43.137 224.571 42.1963 224.571 40.8729V35.8241C224.571 35.0465 224.483 34.5606 224.305 34.3662C224.058 34.0964 223.691 33.9615 223.205 33.9615H222.721ZM231.466 40.249V43.8959C231.466 44.6798 231.553 45.1659 231.732 45.3542C231.972 45.6238 232.336 45.7587 232.822 45.7587H233.315V46.0974H227.787V45.7587H228.273C228.818 45.7587 229.211 45.5861 229.445 45.2444C229.571 45.0563 229.636 44.6046 229.636 43.8959V35.8241C229.636 35.0404 229.552 34.5543 229.38 34.3662C229.13 34.0964 228.763 33.9615 228.273 33.9615H227.787V33.6228H232.517C233.672 33.6228 234.581 33.7389 235.249 33.9679C235.915 34.1968 236.476 34.5856 236.933 35.1313C237.391 35.6769 237.618 36.3229 237.618 37.0693C237.618 38.0882 237.271 38.9162 236.576 39.5528C235.882 40.1894 234.902 40.5091 233.633 40.5091C233.322 40.5091 232.988 40.4873 232.628 40.4434C232.264 40.4027 231.878 40.3368 231.466 40.249ZM231.466 39.7222C231.8 39.7849 232.099 39.8318 232.358 39.86C232.615 39.8914 232.839 39.9072 233.02 39.9072C233.679 39.9072 234.243 39.6596 234.72 39.167C235.197 38.6747 235.438 38.0383 235.438 37.2572C235.438 36.718 235.324 36.2161 235.097 35.7552C234.87 35.2943 234.545 34.9494 234.13 34.7203C233.711 34.4915 233.238 34.3755 232.709 34.3755C232.384 34.3755 231.972 34.4351 231.466 34.5511V39.7222Z" fill="white"/>
</svg>
