<svg width="18" height="20" viewBox="0 0 18 20" fill="none" xmlns="http://www.w3.org/2000/svg">
<g clip-path="url(#clip0_145_724)">
<path d="M17.9824 5.88005C17.9402 4.81738 17.7855 4.0868 17.564 3.45374C17.3354 2.78176 16.9838 2.18014 16.5231 1.68002C16.073 1.1721 15.528 0.777435 14.9302 0.527447C14.3571 0.281274 13.703 0.109427 12.7466 0.0625732C11.7831 0.0117516 11.4772 0 9.03336 0C6.58952 0 6.28363 0.0117516 5.32365 0.0586052C4.36724 0.105459 3.70972 0.277459 3.14011 0.523479C2.53519 0.777435 1.99374 1.16814 1.54362 1.68002C1.0865 2.18014 0.731435 2.78573 0.506309 3.44992C0.284754 4.0868 0.130092 4.81341 0.0879235 5.87609C0.042184 6.9467 0.0316076 7.28658 0.0316076 10.002C0.0316076 12.7173 0.042184 13.0572 0.0843523 14.1239C0.12652 15.1865 0.28132 15.9171 0.502875 16.5502C0.731435 17.2221 1.0865 17.8238 1.54362 18.3239C1.99374 18.8318 2.53876 19.2265 3.13654 19.4765C3.70972 19.7226 4.36367 19.8945 5.32022 19.9413C6.28006 19.9883 6.58609 19.9999 9.02992 19.9999C11.4738 19.9999 11.7796 19.9883 12.7396 19.9413C13.696 19.8945 14.3536 19.7226 14.9232 19.4765C16.1329 18.9568 17.0893 17.8941 17.557 16.5502C17.7784 15.9133 17.9332 15.1865 17.9754 14.1239C18.0175 13.0572 18.0281 12.7173 18.0281 10.002C18.0281 7.28658 18.0245 6.9467 17.9824 5.88005ZM16.3614 14.0457C16.3227 15.0225 16.175 15.5499 16.052 15.9015C15.7495 16.7728 15.1271 17.4643 14.343 17.8004C14.0265 17.9372 13.5484 18.1012 12.6727 18.1441C11.7233 18.1911 11.4386 18.2027 9.03693 18.2027C6.63526 18.2027 6.34695 18.1911 5.40098 18.1441C4.52191 18.1012 4.0472 17.9372 3.73074 17.8004C3.34051 17.6402 2.98531 17.3862 2.697 17.0541C2.39811 16.7298 2.16955 16.3391 2.02533 15.9055C1.90226 15.5539 1.7546 15.0225 1.716 14.0497C1.6737 12.9948 1.66326 12.6783 1.66326 10.0097C1.66326 7.34122 1.6737 7.02087 1.716 5.96995C1.7546 4.99319 1.90226 4.46575 2.02533 4.11412C2.16955 3.68038 2.39811 3.28586 2.70057 2.96536C2.99231 2.63327 3.34394 2.37931 3.73431 2.21921C4.05078 2.08247 4.52905 1.9184 5.40455 1.87537C6.35396 1.82851 6.63883 1.81676 9.04036 1.81676C11.4456 1.81676 11.7303 1.82851 12.6763 1.87537C13.5554 1.9184 14.0301 2.08247 14.3466 2.21921C14.7368 2.37931 15.092 2.63327 15.3803 2.96536C15.6792 3.28967 15.9077 3.68038 16.052 4.11412C16.175 4.46575 16.3227 4.99701 16.3614 5.96995C16.4036 7.02484 16.4142 7.34122 16.4142 10.0097C16.4142 12.6783 16.4036 12.9908 16.3614 14.0457Z" fill="white"/>
<path d="M9.03342 4.86426C6.48066 4.86426 4.40947 7.16543 4.40947 10.002C4.40947 12.8385 6.48066 15.1397 9.03342 15.1397C11.5863 15.1397 13.6574 12.8385 13.6574 10.002C13.6574 7.16543 11.5863 4.86426 9.03342 4.86426ZM9.03342 13.3347C7.37732 13.3347 6.03398 11.8422 6.03398 10.002C6.03398 8.16172 7.37732 6.66927 9.03342 6.66927C10.6897 6.66927 12.0329 8.16172 12.0329 10.002C12.0329 11.8422 10.6897 13.3347 9.03342 13.3347Z" fill="white"/>
<path d="M14.9198 4.66134C14.9198 5.3237 14.4364 5.86076 13.8402 5.86076C13.244 5.86076 12.7607 5.3237 12.7607 4.66134C12.7607 3.99882 13.244 3.46191 13.8402 3.46191C14.4364 3.46191 14.9198 3.99882 14.9198 4.66134Z" fill="white"/>
</g>
<defs>
<clipPath id="clip0_145_724">
<rect width="18" height="20" fill="white"/>
</clipPath>
</defs>
</svg>
