<svg width="18" height="20" viewBox="0 0 18 20" fill="none" xmlns="http://www.w3.org/2000/svg">
<path fill-rule="evenodd" clip-rule="evenodd" d="M14.9692 3.34007C13.3905 1.58386 11.2909 0.616264 9.05409 0.615234C4.44498 0.615234 0.693835 4.78306 0.691981 9.90566C0.691363 11.5432 1.07637 13.1417 1.80816 14.5507L0.62184 19.3652L5.05472 18.0732C6.27616 18.8135 7.65127 19.2036 9.05069 19.2041H9.05419C13.6628 19.2041 17.4143 15.0359 17.4161 9.9131C17.417 7.43042 16.548 5.09617 14.9692 3.34007ZM9.05409 17.635H9.0512C7.80412 17.6344 6.58103 17.262 5.51378 16.5586L5.2601 16.3911L2.62956 17.1579L3.33169 14.3082L3.16638 14.016C2.47063 12.7865 2.10324 11.3654 2.10386 9.90623C2.1053 5.64846 5.22322 2.18445 9.05687 2.18445C10.9133 2.18513 12.6584 2.98943 13.9705 4.44912C15.2827 5.90881 16.0049 7.84904 16.0043 9.91253C16.0027 14.1706 12.8849 17.635 9.05409 17.635ZM12.8664 11.8513C12.6575 11.735 11.6302 11.1736 11.4387 11.096C11.2473 11.0185 11.1078 10.9799 10.9687 11.2122C10.8293 11.4445 10.429 11.9675 10.307 12.1224C10.1851 12.2773 10.0634 12.2968 9.85437 12.1805C9.64539 12.0644 8.9722 11.8191 8.17408 11.0282C7.55301 10.4126 7.13371 9.6524 7.01176 9.42009C6.89002 9.18754 7.01073 9.07402 7.10343 8.9463C7.32961 8.63422 7.5561 8.30704 7.62573 8.1522C7.69546 7.99724 7.66054 7.86163 7.60822 7.74547C7.5561 7.62932 7.13824 6.48662 6.96418 6.02165C6.79444 5.56915 6.62233 5.63026 6.494 5.62317C6.37225 5.61642 6.2329 5.61504 6.09355 5.61504C5.95429 5.61504 5.72791 5.67306 5.53633 5.90561C5.34486 6.13804 4.80516 6.6996 4.80516 7.84229C4.80516 8.98498 5.55384 10.0889 5.65828 10.2438C5.76272 10.3988 7.13165 12.7437 9.22753 13.7492C9.72604 13.9886 10.1152 14.1313 10.4187 14.2383C10.9193 14.415 11.3746 14.39 11.7347 14.3303C12.1362 14.2636 12.9707 13.7686 13.145 13.2264C13.3191 12.6841 13.3191 12.2193 13.2668 12.1224C13.2146 12.0256 13.0753 11.9675 12.8664 11.8513Z" fill="white"/>
</svg>
