<svg width="274" height="72" viewBox="0 0 274 72" fill="none" xmlns="http://www.w3.org/2000/svg">
<path fill-rule="evenodd" clip-rule="evenodd" d="M5.55471 50.32V22.3769C5.55471 17.921 7.86592 15.7733 12.1537 15.4355C12.1537 15.4355 12.9911 15.2737 12.9537 14.6511C12.9304 14.2433 12.9817 11.4465 12.9537 10.7166C12.9257 9.98666 12.1506 10.0505 12.1506 10.0505C5.50646 9.90729 0.21013 15.49 0.233475 22.3769V50.2983C0.233475 50.7714 0.518291 50.913 0.734626 50.913H4.92593C5.35394 50.913 5.55471 50.664 5.55471 50.32ZM94.7488 49.9465V21.5988C94.7488 17.0806 97.06 14.8986 101.346 14.5577C101.346 14.5577 102.184 14.3943 102.146 13.7609C102.123 13.3469 102.176 10.5112 102.146 9.77033C102.118 9.02794 101.345 9.0933 101.345 9.0933C94.7006 8.947 89.4042 14.6106 89.4276 21.5988V49.9232C89.4276 50.4025 89.7124 50.5457 89.9272 50.5457H94.12C94.5496 50.5457 94.7488 50.2936 94.7488 49.9465ZM36.8362 27.3309C36.8362 23.8368 36.6105 9.56333 24.9922 9.66138C13.6012 9.75632 12.63 21.5707 12.63 30.8903C12.63 30.8903 12.1771 42.2814 16.1256 47.5248C20.0741 52.7666 30.1703 52.6375 33.6005 46.6174C37.0308 40.5974 36.8362 30.8265 36.8362 27.3309ZM31.1119 36.1041C31.1119 37.5407 30.9267 46.6081 24.8662 46.6081C18.8041 46.6081 18.1567 38.4169 18.1567 34.7174C18.1567 31.0164 18.11 29.2577 18.11 29.2577C18.11 25.3714 18.1567 14.6371 24.6794 14.6371C31.2022 14.6371 31.1103 25.2329 31.1103 28.4717V36.1041H31.1119ZM138.624 27.1254C138.624 23.6298 138.397 9.35788 126.78 9.45438C115.389 9.54932 114.418 21.3637 114.418 30.6848C114.418 30.6848 113.965 42.0759 117.914 47.3194C121.862 52.5628 131.959 52.432 135.389 46.412C138.819 40.3919 138.624 30.621 138.624 27.1254ZM132.899 35.8987C132.899 37.3337 132.713 46.4011 126.653 46.4011C120.591 46.4011 119.943 38.2115 119.943 34.5104C119.943 30.8094 119.897 29.0507 119.897 29.0507C119.866 23.4213 119.943 14.4301 126.466 14.4301C132.989 14.4301 132.897 25.0259 132.897 28.2631V35.8987H132.899ZM51.3541 9.90262C47.004 9.90262 44.4158 13.322 44.4158 13.322V2.52542C44.4158 2.26706 44.2321 1.91064 43.8881 1.91064H39.5241C39.2221 1.91064 38.8439 2.09586 38.8439 2.58923V15.2488C38.8439 15.2488 38.6167 38.6161 38.6167 40.1694C38.6167 41.7226 40.4174 51.3566 49.7401 51.3566C61.609 51.3566 61.486 35.6964 61.486 32.7766C61.486 30.7253 61.5467 29.9798 61.5467 25.1317C61.5452 12.1407 55.7026 9.90262 51.3541 9.90262ZM49.7588 46.426C42.7925 46.426 43.913 36.8776 43.913 35.2699C43.913 33.6606 44.2056 24.9418 44.2056 24.9418C44.2056 18.5592 46.5449 14.5173 50.6848 14.5173C54.8248 14.5173 56.2878 18.7553 56.2878 24.1637C56.2878 29.5705 56.2395 26.7939 56.2395 31.13C56.2379 35.4629 56.7251 46.426 49.7588 46.426ZM76.0412 9.38435C64.84 9.38435 64.2517 23.3419 64.2517 29.337C64.2517 34.7983 64.4556 39.013 65.4517 42.546C66.4478 46.0789 69.6648 51.3363 76.4848 51.2928C83.8947 51.2243 86.6121 42.9553 86.7491 41.5032C86.8611 40.5974 86.4985 40.0309 85.7981 40.0309H83.1927C82.4675 40.0309 82.055 39.9017 81.4029 42.1833C80.7679 44.4058 78.7976 46.3404 76.0615 46.3404C71.4204 46.3404 70.3216 42.1989 69.9729 40.8013C69.6243 39.4036 69.8064 38.9103 70.2375 38.515L82.7694 27.0678L86.9171 23.2781C87.3638 22.8719 87.4152 22.7287 87.4152 21.6346C87.4152 20.542 87.2409 9.38435 76.0412 9.38435ZM81.4901 21.6423C80.9562 22.2369 71.7192 30.5697 70.9799 31.2451C70.2406 31.919 69.9511 31.4319 69.8951 30.8934C69.8391 30.3549 69.6399 25.8834 69.9231 23.3668C70.2064 20.8501 70.8569 14.4285 76.1471 14.4285C79.7687 14.4285 81.8621 16.9748 81.8621 20.3692C81.8605 20.3692 82.0239 21.0478 81.4901 21.6423Z" fill="black"/>
<path fill-rule="evenodd" clip-rule="evenodd" d="M110.607 8.78536V3.12639C110.607 3.07516 110.597 3.02444 110.577 2.97713C110.557 2.92982 110.529 2.88686 110.492 2.85071C110.456 2.81456 110.413 2.78593 110.366 2.76647C110.318 2.74701 110.267 2.73709 110.216 2.7373H105.297C105.245 2.73709 105.195 2.74701 105.147 2.76647C105.1 2.78593 105.057 2.81456 105.02 2.85071C104.984 2.88686 104.955 2.92982 104.936 2.97713C104.916 3.02444 104.906 3.07516 104.906 3.12639V50.0712C104.906 50.1226 104.916 50.1735 104.935 50.221C104.955 50.2685 104.984 50.3116 105.02 50.3479C105.056 50.3842 105.099 50.413 105.147 50.4326C105.194 50.4521 105.245 50.4621 105.297 50.4619H110.216C110.268 50.4621 110.319 50.4521 110.366 50.4326C110.413 50.413 110.457 50.3842 110.493 50.3479C110.529 50.3116 110.558 50.2685 110.578 50.221C110.597 50.1735 110.607 50.1226 110.607 50.0712V15.3595C110.607 14.9704 110.837 14.7214 111.237 14.7214H114.822C114.925 14.7214 115.024 14.6804 115.097 14.6074C115.17 14.5344 115.211 14.4355 115.211 14.3323V9.92307C115.211 9.87184 115.201 9.82108 115.181 9.77369C115.162 9.72631 115.133 9.68323 115.097 9.64694C115.061 9.61064 115.018 9.58184 114.971 9.56219C114.924 9.54254 114.873 9.53242 114.822 9.53242H111.275C110.666 9.53242 110.657 9.02348 110.607 8.78536ZM169.909 22.5437H171.253C171.732 22.5437 172.277 22.2604 172.277 21.5881C172.277 20.9173 172.312 8.92544 161.701 8.92544C151.09 8.92544 149.639 21.2332 149.639 25.6564V32.2025C149.639 33.7931 150.171 40.4435 150.985 42.7065C151.796 44.971 154.803 51.1249 161.348 51.1249C167.892 51.1249 172.207 45.3943 172.348 38.7097C172.348 38.1074 172.115 37.3292 171.214 37.3292H168.387C167.344 37.3292 167.217 37.5409 167.007 38.9914C166.793 40.442 166.72 46.171 161.203 46.171C155.686 46.171 155.367 37.0102 155.367 31.4555C155.367 25.9008 154.872 13.9805 161.698 13.9805C166.261 13.9105 166.543 20.4535 166.613 21.3033C166.686 22.153 167.05 22.5421 167.889 22.5421L169.909 22.5437ZM198.389 18.9796C198.164 13.2179 193.031 8.73867 188.337 8.82894C177.333 8.82894 176.68 19.3687 176.68 21.2799V24.181C176.68 24.7833 177.139 25.3483 178.625 25.3483H180.325C181.173 25.3483 181.917 24.9249 181.917 23.8277C181.917 19.9726 182.695 17.2474 183.543 16.1486C184.391 15.0513 185.735 14.2389 187.54 14.2389C189.345 14.2389 192.634 14.2731 192.634 18.3773C192.634 22.4814 184.888 25.9848 182.412 27.5054C180.195 28.8672 174.273 32.9558 174.273 40.7392C174.273 48.5226 180.605 51.4938 184.603 51.4938C188.601 51.4938 192.601 48.0962 192.601 48.0962V49.5467C192.601 49.9716 192.777 50.5023 193.593 50.5023H196.775C197.059 50.5023 198.156 50.5023 198.156 49.6183C198.156 48.7343 198.439 26.0533 198.439 26.0533C198.439 24.1359 198.567 23.476 198.389 18.9796ZM192.425 37.9798C192.139 42.9337 190.83 46.2566 186.127 46.2566C181.422 46.2566 179.943 42.294 180.004 39.3945C180.077 36.1401 183.509 33.0974 185.135 32.1776C186.762 31.2578 191.397 27.8618 192.704 26.3755C192.706 26.3755 192.709 33.0274 192.425 37.9798ZM201.935 9.49196H203.89C204.923 9.49196 205.051 9.94331 205.287 10.8678C205.524 11.7923 211.092 36.2382 211.092 36.2382C211.092 36.2382 216.336 11.6429 216.53 10.7822C216.725 9.92307 217.133 9.36278 218.078 9.36278H221.993C222.638 9.36278 222.918 9.8795 222.744 10.8242C222.574 11.7705 213.692 48.4044 213.457 49.265C213.22 50.1257 212.554 50.5771 211.779 50.5771H209.584C208.812 50.5771 208.296 50.3623 208.059 49.5888C207.823 48.8137 199.611 11.4468 199.502 10.8444C199.396 10.2421 199.891 9.46861 200.685 9.46861C201.482 9.47017 201.935 9.49196 201.935 9.49196ZM244.768 18.687C244.542 13.5712 239.566 9.01726 234.874 9.10597C223.87 9.10597 223.38 18.7601 223.38 20.6698C223.38 22.581 223.358 23.3717 223.358 23.9756C223.358 24.5763 223.821 25.1413 225.307 25.1413L227.003 25.1428C227.855 25.1428 228.595 24.7179 228.595 23.6207C228.595 19.7656 229.094 17.4497 229.945 16.3509C230.793 15.2521 232.136 14.4412 233.942 14.4412C235.744 14.4412 239.036 14.4755 239.036 18.5796C239.036 22.6838 233.02 25.4899 228.81 27.7077C226.511 28.9186 220.898 33.0803 220.898 40.8622C220.898 48.1989 227.537 51.5498 231.448 51.5887C236.13 51.5887 239.003 48.3001 239.003 48.3001V49.7506C239.003 50.174 239.176 50.7047 239.991 50.7047H243.174C243.457 50.7047 244.554 50.7047 244.554 49.8222C244.554 48.9382 244.838 26.2572 244.838 26.2572C244.838 24.3382 244.969 23.1818 244.768 18.687ZM238.995 38.5852C238.74 41.6948 238.001 46.5056 232.936 46.4714C227.872 46.4387 226.589 41.34 226.589 39.449C226.589 37.558 227.456 35.2172 231.237 32.7177C235.022 30.2166 238.225 27.8758 239.219 26.7848C239.221 26.7864 239.254 35.474 238.995 38.5852ZM254.291 49.8518C254.291 50.0585 254.209 50.2567 254.063 50.4032C253.918 50.5496 253.72 50.6323 253.513 50.6331H249.68C249.473 50.6323 249.275 50.5496 249.129 50.4032C248.983 50.2567 248.901 50.0585 248.901 49.8518V1.40349C248.901 0.973935 249.252 0.623752 249.68 0.623752H253.513C253.941 0.623752 254.291 0.973935 254.291 1.40349V49.8518ZM263.785 49.8518C263.783 49.9564 263.761 50.0596 263.719 50.1555C263.677 50.2514 263.617 50.3381 263.542 50.4106C263.466 50.4832 263.377 50.5402 263.28 50.5784C263.183 50.6166 263.079 50.6351 262.974 50.6331H259.001C258.79 50.6368 258.586 50.5567 258.434 50.4102C258.282 50.2637 258.194 50.0629 258.19 49.8518V1.40349C258.19 0.973935 258.554 0.623752 259.001 0.623752H262.974C263.079 0.621482 263.183 0.639865 263.28 0.677863C263.377 0.715861 263.466 0.77272 263.542 0.84517C263.617 0.91762 263.677 1.00424 263.719 1.10005C263.761 1.19586 263.783 1.29899 263.785 1.40349V49.8518ZM273.64 49.7008C273.64 50.1724 273.29 50.5553 272.862 50.5553H269.127C268.695 50.5553 268.345 50.1724 268.345 49.7008V10.1083C268.345 9.63669 268.695 9.25383 269.127 9.25383H272.862C273.29 9.25383 273.64 9.63669 273.64 10.1083V49.7008ZM273.764 6.23913C273.764 6.34166 273.744 6.44318 273.705 6.53789C273.666 6.63259 273.608 6.71862 273.536 6.79104C273.463 6.86347 273.377 6.92088 273.282 6.95998C273.187 6.99907 273.086 7.01909 272.983 7.01889H269.105C269.002 7.01889 268.901 6.9987 268.807 6.95949C268.712 6.92029 268.626 6.86283 268.554 6.7904C268.482 6.71798 268.424 6.63201 268.385 6.53741C268.346 6.44282 268.326 6.34146 268.327 6.23913V1.28365C268.326 1.18132 268.346 1.07996 268.385 0.985368C268.424 0.890775 268.482 0.804803 268.554 0.732377C268.626 0.659951 268.712 0.602494 268.807 0.563289C268.901 0.524084 269.002 0.503906 269.105 0.503906H272.983C273.414 0.503906 273.764 0.854089 273.764 1.28365V6.23913ZM64.0403 64.3945H61.2217V63.2848H64.0403V61.3705H66.2052V63.2848H74.7886V64.3945H66.2036V68.4162C66.2036 69.9196 67.0347 70.3803 69.4004 70.3803H70.0806C72.9505 70.3803 73.4034 69.999 73.4034 68.3057V67.7018H75.1652V68.589C75.1652 70.2045 74.9146 71.4869 70.2331 71.4869H69.0502C64.999 71.4869 64.0418 70.2512 64.0418 68.936V64.3945H64.0403ZM78.0429 63.1837H80.2981V71.378H78.0429V63.1837ZM84.5346 63.1183H86.5547V64.0817H86.6061C87.515 63.2304 88.7508 62.9907 90.9219 62.9907H94.4315C96.4019 62.9907 97.9147 63.4872 98.598 64.5004C99.4057 63.3922 101.147 62.9907 103.368 62.9907H105.994C109.479 62.9907 111.625 63.9541 111.625 65.8139V71.3033H109.455V65.9742C109.455 65.028 108.798 64.1128 105.34 64.1128H103.801C99.8866 64.1128 99.3559 65.14 99.3559 66.4552V71.3033H97.1848V66.3447C97.1848 64.7556 96.4035 64.1113 92.9436 64.1113H90.8955C88.1173 64.1113 86.8302 64.849 86.8302 66.1672V71.3017H84.5346V63.1183ZM114.982 66.2248C114.982 63.2163 118.213 62.8771 121.291 62.8771H124.775C128.662 62.8771 131.462 63.509 131.462 66.4692V67.3968H117.151V67.915C117.151 69.8014 118.565 70.2901 122.351 70.2901H125.33C128.055 70.2901 129.167 70.0613 129.293 68.7928H131.462V68.9547C131.462 70.855 129.014 71.4247 124.977 71.4247H121.039C118.213 71.4247 114.982 71.0838 114.982 68.0271V66.2248ZM129.293 65.7034C129.293 64.8599 128.309 64.0117 124.775 64.0117H121.595C118.162 64.0117 117.354 64.3696 117.153 66.256H129.294V65.7034H129.293ZM133.014 62.9891H135.311L140.334 70.0597L144.421 62.9891H147.549L151.638 70.0597L156.657 62.9891H158.954L153.101 71.1834H150.097L145.986 64.1128L141.874 71.1834H138.868L133.014 62.9891ZM160.523 66.0272C160.523 63.0436 163.724 62.7043 166.776 62.7043H170.23C174.082 62.7043 176.857 63.3315 176.857 66.2684V67.1898H162.677V67.7034C162.677 69.5757 164.078 70.0597 167.83 70.0597H170.781C173.483 70.0597 174.58 69.834 174.708 68.5765H176.857V68.7384C176.857 70.6247 174.431 71.1896 170.431 71.1896H166.527C163.724 71.1896 160.524 70.8504 160.524 67.8201V66.0272H160.523ZM174.706 65.5104C174.706 64.6731 173.73 63.8327 170.228 63.8327H167.077C163.675 63.8327 162.876 64.1891 162.675 66.0614H174.706V65.5104ZM193.506 70.1733H193.454C192.877 70.9126 192.204 71.1212 188.903 71.1212H183.749C180.499 71.1212 179.648 70.2045 179.648 68.6621V68.1143C179.648 66.2513 181.699 66.0256 185.451 66.0256H188.905C191.705 66.0256 192.704 66.217 193.456 67.0046H193.507V65.4638C193.507 63.9852 192.053 63.7922 188.752 63.7922H185.601C182.902 63.7922 182.376 64.2109 182.376 64.8832V65.1743H180.223V64.7727C180.223 63.2771 181.7 62.667 185.552 62.667H188.955C192.955 62.667 195.658 63.0514 195.658 65.4949V70.9904H193.509V70.1733H193.506ZM193.506 68.4193C193.506 67.2956 191.952 67.1524 188.651 67.1524H185.35C182.575 67.1524 181.8 67.4092 181.8 68.4364V68.6948C181.8 69.6099 182.298 69.9975 185.25 69.9975H188.102C192.005 69.9975 193.507 69.82 193.507 68.7928V68.4193H193.506ZM198.998 63.3004H200.998V64.4895H201.046C201.849 63.428 203.476 63.1712 204.95 63.1712H206.977C211.002 63.1712 212.328 64.007 212.328 66.0163V66.9952H210.328V66.6419C210.328 64.6171 209.678 64.2949 205.851 64.2949H204.525C202.251 64.2949 201.147 65.2287 201.147 66.2871V71.4947H198.998V63.3004ZM78.0429 59.7441H80.2717V61.4219H78.0429V59.7441Z" fill="black"/>
</svg>
