<svg width="14" height="14" viewBox="0 0 14 14" fill="none" xmlns="http://www.w3.org/2000/svg">
<g clip-path="url(#clip0_145_748)">
<path d="M2.52634 0.000754565L6.2795 3.75391L5.00745 5.02595L1.2543 1.2728L2.52634 0.000754565Z" fill="white"/>
<path d="M0.642426 1.88344L0.6704 1.85547L4.55905 5.74413C5.03354 6.43261 5.59359 7.10108 6.22908 7.73654C6.88976 8.39721 7.58494 8.97567 8.30084 9.46107L12.1565 13.3168L12.0724 13.4009L12.0607 13.4122C11.272 14.141 9.94047 14.1933 8.31156 13.5596C6.78375 12.9653 5.12889 11.8245 3.65199 10.3476C2.15742 8.85303 1.01006 7.18097 0.421382 5.63946C0.140018 4.90266 -9.53674e-06 4.22891 -9.53674e-06 3.63999C-3.62396e-05 2.91038 0.214966 2.31093 0.642426 1.88344Z" fill="white"/>
<path d="M10.2469 7.72097L14.0001 11.4741L12.7404 12.7338L8.98723 8.98065L10.2469 7.72097Z" fill="white"/>
</g>
<defs>
<clipPath id="clip0_145_748">
<rect width="14" height="14" fill="white" transform="matrix(-1 0 0 1 14 0)"/>
</clipPath>
</defs>
</svg>
